HIERARCHY
ROOT Hips
{
	OFFSET 0.00000 0.00000 0.00000
	CHANNELS 6 Xposition Yposition Zposition Zrotation Yrotation Xrotation 
	JOINT LHipJoint
	{
		OFFSET 0 0 0
		CHANNELS 3 Zrotation Yrotation Xrotation
		JOINT LeftHip
		{
			OFFSET 1.85742 -1.74412 1.01653
			CHANNELS 3 Zrotation Yrotation Xrotation
			JOINT LeftKnee
			{
				OFFSET 2.54803 -7.00067 0.00000
				CHANNELS 3 Zrotation Yrotation Xrotation
				JOINT LeftAnkle
				{
					OFFSET 2.51202 -6.90173 0.00000
					CHANNELS 3 Zrotation Yrotation Xrotation
					JOINT LeftToe
					{
						OFFSET 0.17547 -0.48209 1.64281
						CHANNELS 3 Zrotation Yrotation Xrotation
						End Site
						{
							OFFSET 0.00000 -0.00000 0.86587
						}
					}
				}
			}
		}
	}
	JOINT RHipJoint
	{
		OFFSET 0 0 0
		CHANNELS 3 Zrotation Yrotation Xrotation
		JOINT RightHip
		{
			OFFSET -1.95533 -1.74413 1.01654
			CHANNELS 3 Zrotation Yrotation Xrotation
			JOINT RightKnee
			{
				OFFSET -2.49465 -6.85400 0.00000
				CHANNELS 3 Zrotation Yrotation Xrotation
				JOINT RightAnkle
				{
					OFFSET -2.54783 -7.00010 0.00000
					CHANNELS 3 Zrotation Yrotation Xrotation
					JOINT RightToe
					{
						OFFSET -0.18513 -0.50864 1.69288
						CHANNELS 3 Zrotation Yrotation Xrotation
						End Site
						{
							OFFSET -0.00000 -0.00000 0.89242
						}
					}
				}
			}
		}
	}
	JOINT lowerback
	{
		OFFSET 0 0 0
		CHANNELS 3 Zrotation Yrotation Xrotation
		JOINT Chest
		{
			OFFSET 0.02173 2.16290 -0.15998
			CHANNELS 3 Zrotation Yrotation Xrotation
			JOINT Chest2
			{
				OFFSET 0.00940 2.17323 -0.00467
				CHANNELS 3 Zrotation Yrotation Xrotation
				JOINT lowerneck
				{
					OFFSET 0 0 0
					CHANNELS 3 Zrotation Yrotation Xrotation
					JOINT Neck
					{
						OFFSET 0.01475 1.85823 0.31113
						CHANNELS 3 Zrotation Yrotation Xrotation
						JOINT Head
						{
							OFFSET 0.01902 1.88783 -0.37187
							CHANNELS 3 Zrotation Yrotation Xrotation
							End Site
							{
								OFFSET 0.00489 1.93211 -0.16169
							}
						}
					}
				}
				JOINT LeftCollar
				{
					OFFSET 0 0 0
					CHANNELS 3 Zrotation Yrotation Xrotation
					JOINT LeftShoulder
					{
						OFFSET 3.34199 1.32384 -0.07862
CHANNELS 3 Zrotation Xrotation Yrotation
						JOINT LeftElbow
						{
OFFSET 0 -5.279500 0.000000
CHANNELS 3 Zrotation Xrotation Yrotation
							JOINT LeftWrist
							{
OFFSET 0 -3.535040 0.000000
CHANNELS 3 Zrotation Xrotation Yrotation
								JOINT lhand
								{
									OFFSET 0 0 0
CHANNELS 3 Zrotation Xrotation Yrotation
									JOINT LFingers
									{
OFFSET 0 -0.667950 0.000000
CHANNELS 3 Zrotation Xrotation Yrotation
										End Site
										{
OFFSET 0 -0.538520 0.000000
										}
									}
								}
								JOINT LThumb
								{
OFFSET 0 0.000000 0.000000
CHANNELS 3 Zrotation Xrotation Yrotation
									End Site
									{
OFFSET 0 -0.546740 0.546740
									}
								}
							}
						}
					}
				}
				JOINT RightCollar
				{
					OFFSET 0 0 0
					CHANNELS 3 Zrotation Yrotation Xrotation
					JOINT RightShoulder
					{
						OFFSET -3.16149 1.45719 -0.50507
CHANNELS 3 Zrotation Xrotation Yrotation
						JOINT RightElbow
						{
OFFSET 0 -5.250350 0.000000
CHANNELS 3 Zrotation Xrotation Yrotation
							JOINT RightWrist
							{
OFFSET 0 -3.588840 0.000000
CHANNELS 3 Zrotation Xrotation Yrotation
								JOINT rhand
								{
									OFFSET 0 0 0
CHANNELS 3 Zrotation Xrotation Yrotation
									JOINT RFingers
									{
OFFSET 0 -0.779240 0.000000
CHANNELS 3 Zrotation Xrotation Yrotation
										End Site
										{
OFFSET 0 -0.628240 0.000000
										}
									}
								}
								JOINT RThumb
								{
OFFSET 0 0.000000 0.000000
CHANNELS 3 Zrotation Xrotation Yrotation
									End Site
									{
OFFSET 0 -0.637830 0.637830
									}
								}
							}
						}
					}
				}
			}
		}
	}
}
MOTION
Frames: 10
Frame Time: 0.008333333333333333
12.397615 17.528996 -1.831206 19.375282 -132.050997 12.314691 0.000000 0.000000 0.000000 0.389237 -10.348630 -50.180299 4.955201 13.333245 40.628972 0.884453 -5.846219 -16.770811 5.268717 -13.680177 -41.971157 0.000000 0.000000 0.000000 20.241025 9.243966 -23.666076 -0.922955 -6.120518 17.134542 -0.044443 -5.224002 -8.722301 -0.195763 2.718119 -7.505131 -7.786277 4.357408 24.204474 -7.011521 1.917344 7.058906 -3.765527 0.454402 -5.699211 5.822005 13.461420 -21.560360 -13.543036 20.814207 27.044431 -2.212972 7.534720 15.323373 0.000000 0.000000 0.000000 20.366869 -54.816062 -10.481609 17.104089 -26.994885 4.134520 39.018086 -15.068585 -72.727099 0.000000 0.000000 0.000000 -7.125000 0.000000 0.000000 -143.522115 -71.789014 -155.819712 0.000000 0.000000 0.000000 -17.923078 -30.748283 76.635849 -110.976739 -58.270268 -78.060850 -2.143504 -26.724656 0.173882 0.000000 0.000000 0.000000 7.125000 0.000000 0.000000 18.996246 29.835140 7.399310
12.840293 17.458920 -2.017859 17.616034 -131.115322 12.359276 0.000000 0.000000 0.000000 1.093126 -11.639236 -49.657263 4.985505 13.367481 40.760131 0.752006 -6.082031 -15.459566 4.078087 -12.262766 -36.669018 0.000000 0.000000 0.000000 19.697784 8.869441 -22.223836 -0.849539 -5.878634 16.432784 -0.115265 -5.545066 -10.697196 -1.403284 7.479891 -21.151615 -7.527599 3.991813 24.456231 -7.044546 1.464125 7.542276 -3.809107 0.204787 -5.288297 5.478674 13.438854 -21.243684 -13.125100 20.778349 27.292562 -2.028850 7.538803 15.247091 0.000000 0.000000 0.000000 17.481593 -53.239079 -10.991081 16.646516 -26.389417 3.928915 35.234040 -17.756323 -72.191335 0.000000 0.000000 0.000000 -7.125000 0.000000 0.000000 -140.043033 -72.525467 -152.703933 0.000000 0.000000 0.000000 -19.884771 -29.221222 76.538585 -110.850849 -58.291709 -77.953744 -2.165568 -26.379942 -0.200638 0.000000 0.000000 0.000000 7.125000 0.000000 0.000000 18.910283 29.481348 7.531891
13.352557 17.422179 -2.232600 16.373692 -130.133479 12.185344 0.000000 0.000000 0.000000 2.287646 -12.786860 -48.892006 4.814428 13.171681 40.014689 0.583956 -5.116877 -13.604965 3.663832 -11.698811 -34.675013 0.000000 0.000000 0.000000 21.699096 6.688080 -22.664699 -0.879951 -5.980142 16.726852 -0.139522 -6.750377 -12.478828 -2.901165 10.532751 -30.720386 -7.220145 2.899845 24.497363 -7.251436 0.106766 8.078673 -3.806460 -0.483689 -4.733163 5.300045 13.819180 -20.535040 -13.669169 21.430385 26.701993 -2.096918 7.798087 14.977119 0.000000 0.000000 0.000000 17.604827 -50.128161 -8.940096 17.548329 -27.574901 4.338136 33.970220 -19.683193 -72.238357 0.000000 0.000000 0.000000 -7.125000 0.000000 0.000000 -138.918218 -72.570466 -151.828839 0.000000 0.000000 0.000000 -19.792491 -29.056638 77.946902 -108.026802 -58.735514 -75.545350 -1.585800 -25.396836 -1.258240 0.000000 0.000000 0.000000 7.125000 0.000000 0.000000 19.151984 28.466320 8.130536
13.823413 17.425858 -2.401925 15.214742 -130.685451 12.460456 0.000000 0.000000 0.000000 3.767580 -13.729651 -47.484722 4.475711 12.767874 38.505646 0.461909 -3.509972 -12.117000 2.516653 -9.866107 -28.546032 0.000000 0.000000 0.000000 22.666226 6.856449 -22.843779 -0.880476 -5.981798 16.731623 -0.241208 -6.322686 -13.700035 -2.599679 10.016824 -29.031364 -7.180687 2.601954 24.514855 -7.730362 -0.350357 8.016287 -4.232841 -0.714566 -4.823504 5.990832 14.107157 -19.994399 -13.776475 21.636827 26.774557 -2.222390 7.956083 15.028350 0.000000 0.000000 0.000000 15.923215 -46.774666 -9.600149 17.943896 -28.085268 4.522822 32.816883 -21.132449 -71.788765 0.000000 0.000000 0.000000 -7.125000 0.000000 0.000000 -137.538609 -72.984736 -150.438835 0.000000 0.000000 0.000000 -20.580070 -26.973466 78.780860 -106.719677 -58.916932 -74.426981 -1.807283 -25.211484 -3.513654 0.000000 0.000000 0.000000 7.125000 0.000000 0.000000 18.612697 26.335235 8.871143
14.221938 17.418800 -2.508695 14.861729 -132.252482 12.494942 0.000000 0.000000 0.000000 5.326394 -13.613439 -46.481326 4.208125 12.432296 37.278964 0.349450 -1.612505 -10.720442 1.962036 -8.785873 -25.128241 0.000000 0.000000 0.000000 23.766139 7.776097 -23.317358 -0.890644 -6.015477 16.829285 -0.320330 -5.541467 -14.165473 -2.411988 9.676049 -27.933897 -6.942377 2.721635 24.134808 -8.001763 -0.150933 8.004190 -4.717961 -0.631655 -4.643620 6.329112 14.421438 -19.952441 -13.667193 21.959380 26.867772 -2.152476 8.135945 15.128667 0.000000 0.000000 0.000000 14.127624 -43.987417 -10.725292 18.127281 -28.319877 4.609479 30.537197 -24.617319 -71.282386 0.000000 0.000000 0.000000 -7.125000 0.000000 0.000000 -134.858287 -73.464465 -147.954628 0.000000 0.000000 0.000000 -22.257209 -25.152275 79.208562 -106.224405 -58.981599 -74.002719 -1.735605 -24.629895 -5.248861 0.000000 0.000000 0.000000 7.125000 0.000000 0.000000 18.404334 24.688357 9.512113
14.530606 17.421434 -2.555639 14.567166 -134.178124 12.544801 0.000000 0.000000 0.000000 6.655505 -13.659319 -45.193831 3.971137 12.121842 36.164385 0.310929 0.065288 -10.557031 1.581381 -7.933165 -22.511543 0.000000 0.000000 0.000000 24.534328 8.183683 -24.613078 -1.016438 -6.414148 17.990981 -0.410101 -3.339677 -13.787304 -2.185349 9.241906 -26.554887 -7.310223 2.755673 24.097006 -8.048477 -0.232918 7.943475 -4.537171 -0.687175 -4.696186 5.842525 14.483494 -19.996158 -13.262481 22.020222 26.517597 -1.905868 8.196894 14.845269 0.000000 0.000000 0.000000 12.534840 -41.423803 -11.286244 18.793529 -29.161286 4.929892 34.516290 -23.228250 -68.273909 0.000000 0.000000 0.000000 -7.125000 0.000000 0.000000 -136.421588 -75.679798 -147.288289 0.000000 0.000000 0.000000 -23.880207 -23.871566 79.176372 -106.630415 -58.928776 -74.350506 -0.907123 -24.402981 -5.600318 0.000000 0.000000 0.000000 7.125000 0.000000 0.000000 18.943999 24.351082 9.980708
14.770408 17.405705 -2.591494 14.351228 -135.469379 12.467740 0.000000 0.000000 0.000000 7.455460 -13.351507 -44.385068 3.827247 11.926833 35.473736 0.303560 0.683872 -10.677567 1.768981 -8.367327 -23.835409 0.000000 0.000000 0.000000 25.042131 8.802636 -25.764117 -1.210381 -6.979278 19.654045 -0.478997 -2.043421 -13.977078 -1.964206 8.791070 -25.144013 -7.896102 2.582239 24.027084 -7.843427 -0.577657 7.996805 -3.876039 -0.869273 -4.606636 4.555331 14.243144 -21.372156 -12.767487 21.936399 26.215013 -1.471558 8.052713 14.733383 0.000000 0.000000 0.000000 10.200265 -38.848809 -11.763338 20.403373 -31.124716 5.738641 33.293271 -25.970418 -68.178209 0.000000 0.000000 0.000000 -7.125000 0.000000 0.000000 -134.684515 -75.804575 -145.771934 0.000000 0.000000 0.000000 -26.330797 -23.008858 78.206408 -108.538588 -58.660667 -75.982636 -0.226122 -23.219068 -5.829019 0.000000 0.000000 0.000000 7.125000 0.000000 0.000000 19.392464 24.131138 10.351332
14.947469 17.382400 -2.617870 14.145988 -136.692030 12.273552 0.000000 0.000000 0.000000 8.005026 -13.049466 -43.437644 3.734547 11.798553 35.022877 0.259440 1.613979 -10.351204 1.280680 -7.169755 -20.220025 0.000000 0.000000 0.000000 25.527706 8.744036 -26.602830 -1.365388 -7.395652 20.892975 -0.545715 -0.325469 -14.079803 -1.891930 8.637024 -24.666410 -8.181366 2.385690 23.793747 -7.945905 -0.898681 7.986293 -3.734411 -1.039176 -4.505510 4.578794 14.581906 -21.141111 -12.669544 22.304983 25.734460 -1.363898 8.282471 14.494287 0.000000 0.000000 0.000000 8.127040 -36.521502 -12.251828 21.734701 -32.675811 6.442095 33.381754 -27.082694 -67.689693 0.000000 0.000000 0.000000 -7.125000 0.000000 0.000000 -134.223547 -76.186937 -145.064721 0.000000 0.000000 0.000000 -29.245293 -22.587249 77.391918 -109.963800 -58.439074 -77.198506 0.923638 -22.952407 -6.293059 0.000000 0.000000 0.000000 7.125000 0.000000 0.000000 20.131083 23.686432 11.018693
15.035311 17.384066 -2.638571 13.928158 -137.087321 12.204397 0.000000 0.000000 0.000000 8.223729 -13.202837 -42.848516 3.678360 11.719721 34.747433 0.223450 1.971184 -9.876873 0.800234 -5.709086 -15.942855 0.000000 0.000000 0.000000 25.843869 8.092580 -26.790196 -1.368011 -7.402409 20.913285 -0.572557 0.871407 -14.021868 -1.833829 8.510818 -24.276869 -7.881717 2.008167 23.249370 -7.794362 -1.189371 7.938842 -3.646627 -1.167950 -4.290053 4.852524 14.798181 -20.843763 -12.744526 22.543388 25.857430 -1.394452 8.397213 14.561710 0.000000 0.000000 0.000000 6.195097 -34.723991 -14.416907 22.511329 -33.550084 6.866324 32.660365 -29.025756 -66.223496 0.000000 0.000000 0.000000 -7.125000 0.000000 0.000000 -131.046157 -77.345800 -141.387971 0.000000 0.000000 0.000000 -31.757915 -21.974922 76.580981 -108.237735 -58.704801 -75.725682 1.467107 -21.640852 -9.688826 0.000000 0.000000 0.000000 7.125000 0.000000 0.000000 20.025300 20.495103 12.520708
15.000088 17.379945 -2.627705 13.922296 -136.557237 11.909557 0.000000 0.000000 0.000000 7.819560 -13.180930 -42.792682 3.675016 11.714835 34.730635 0.223213 1.562467 -9.637653 0.824339 -5.792653 -16.184037 0.000000 0.000000 0.000000 25.815026 7.510491 -26.460682 -1.342906 -7.336899 20.717331 -0.577249 0.602484 -14.159241 -1.914656 8.685989 -24.817932 -5.978386 1.914791 22.887286 -7.770409 -0.777051 7.858152 -4.803872 -0.927188 -4.210977 5.727299 14.287212 -20.946897 -11.332226 21.186027 26.226274 -1.283643 8.085241 14.465943 0.000000 0.000000 0.000000 5.146912 -31.571580 -22.631835 25.135513 -36.339711 8.371109 37.073516 -28.406202 -65.807407 0.000000 0.000000 0.000000 -7.125000 0.000000 0.000000 -137.811821 -77.524608 -146.922294 0.000000 0.000000 0.000000 -33.913176 -18.383042 73.670762 -110.057367 -58.423678 -77.278211 1.616726 -22.172030 -13.113540 0.000000 0.000000 0.000000 7.125000 0.000000 0.000000 19.713084 17.274459 13.817109
